#!OML:ASF F:\VICON\USERDATA\INSTALL\rory3\rory3.ASF
:FULLY-SPECIFIED
:DEGREES
1
root 0.8911845700988438 17.614016861751622 -27.75388285215493 -2.557117628163649 2.4780654676088787 2.700718167538915
lfemur 18.614181907977777 -5.087219969779572 -27.718688585059272
ltibia 16.862508156567152
lfoot -13.176991282888897 -5.263033933779025
ltoes -9.93200092126594
rfemur -28.629889159343016 5.4299365181936725 18.51681059655376
rtibia 22.819507727398427
rfoot -8.4401698437243 -12.09478917591445
rtoes -0.03645426961701359
lowerback 9.200288454758883 -2.0620935589063216 -5.642134214789936
upperback 0.40781119717973857 -3.2522930772987486 1.7192093441615368
thorax -4.319574925065844 -1.4846630275340158 5.385531421447421
lowerneck -17.007496714689477 -2.2214693380016737 -1.995630452924606
upperneck 21.172499209031827 -2.48857234401443 -0.28807912520032053
head 9.522919290130218 -1.3565809211405984 -0.09425479356055819
lclavicle -2.797198145427718e-15 -4.1600762727516696e-16
lhumerus -23.189310697911907 -0.9676578424843223 81.17871105739401
lradius 30.576688738870033
lwrist 6.029984982141279
lhand -32.670471918187005 25.677993912934987
lfingers 7.1250199999999975
lthumb -5.896071920124797 55.57599412387038
rclavicle -2.797198145427718e-15 -4.1600762727516696e-16
rhumerus -32.956586915512936 -19.223198008768136 -77.31120598513246
rradius 25.22389867301006
rwrist 5.408492016763489
rhand -17.464200743295013 22.5762992414953
rfingers 7.1250199999999975
rthumb 8.787449255265114 -7.220800761881523
2
root 0.8372378561057846 17.72211081943764 -26.684283327485467 -2.94351457574144 1.6376480911913247 -0.1193528730191169
lfemur 16.47138335469849 -5.950746672058532 -24.989192525326267
ltibia 27.02430255618054
lfoot -6.936138580689071 -9.437198123191193
ltoes -13.540885794863057
rfemur -26.674890482357924 5.5283261649412765 22.247905075811545
rtibia 25.087506437032417
rfoot -4.9076335513398455 -8.448736000734105
rtoes -0.10742836038182002
lowerback 9.365026369292417 -1.9316543406679445 -2.5361313326471056
upperback 0.15854473273076425 -2.7129351619752984 2.593240389993149
thorax -4.843262605557136 -1.25418495476863 4.501315074256265
lowerneck -16.699200977177117 -2.5811997617940623 -2.501474098472541
upperneck 22.15378815329407 -2.817286640613129 -0.4809360367826292
head 9.82167138120102 -1.5782308915034036 -0.12524724220060338
lclavicle -2.797198160818753e-15 -4.1600760208561237e-16
lhumerus -24.633508419785954 0.24130687550062552 82.17810537967982
lradius 30.6116886638879
lwrist 6.331713992226053
lhand -32.90677072515781 25.440294596976692
lfingers 7.1250199999999975
lthumb -6.124190727576769 55.33179482634431
rclavicle -2.797198160818753e-15 -4.1600760208561237e-16
rhumerus -34.04778393426651 -22.199293047996306 -74.66591489051811
rradius 22.90750575469779
rwrist 8.292504869350376
rhand -17.063204131832787 23.643194707387206
rfingers 7.1250199999999975
rthumb 9.17434586740928 -6.1372453801552
3
root 0.7758613192283113 17.84280407283914 -25.64118379103938 -3.0380538289091543 1.2381193384247111 -0.43924908357123793
lfemur 11.369186799470562 -3.993374147066007 -23.3206949339489
ltibia 38.42599627245838
lfoot 7.378784680019959 -14.847280592160267
ltoes -12.840486789776337
rfemur -24.955391646001893 3.395323823147351 23.54580315536683
rtibia 28.76220434633218
rfoot -5.236433206244249 -5.276731938210776
rtoes 2.540111564828069
lowerback 9.4045858684969 -1.8517648194699752 -2.1273322694695906
upperback -0.00875020094082446 -2.546955803503442 2.87228753124448
thorax -5.061797464626387 -1.170955650723752 4.550834869683772
lowerneck -17.06979585334345 -2.482772381981184 -2.7820305740975857
upperneck 22.238487199028306 -2.596460472087055 -0.4477603960365173
head 9.924748652413959 -1.4957846221881768 -0.04316269705614528
lclavicle -2.797198217908407e-15 -4.16007586342116e-16
lhumerus -27.191804384244044 1.7964879399752567 82.8336016557038
lradius 30.836288182716984
lwrist 6.459953571496503
lhand -32.402373271767736 17.618217107042398
lfingers 7.1250199999999975
lthumb -5.637243273216184 47.52321728882569
rclavicle -2.797198217908407e-15 -4.16007586342116e-16
rhumerus -34.505882682700346 -24.393089391216897 -72.60092184232747
rradius 21.413510322147914
rwrist 10.64878902980071
rhand -16.957205027555993 22.44899978249442
rfingers 7.1250199999999975
rthumb 9.276634971715888 -7.3269103096269
4
root 0.704277025688104 17.973696756105557 -24.670184222552116 -3.181032699418141 1.2045494432219117 -3.0485476442788744
lfemur 3.9778317897789854 -2.4673999746068627 -19.00080117009448
ltibia 51.34228915400752
lfoot 17.88317239661481 -18.13957600916569
ltoes 9.968300810455112
rfemur -21.151794220027075 2.9095555672211098 27.22279771467398
rtibia 28.45520452099811
rfoot -5.694722725241027 -4.133184078746735
rtoes 8.034383108674835
lowerback 9.595843447310084 -1.6310261424235226 0.7651251020438243
upperback -0.020175481379856752 -1.9030282923527784 3.339542744364337
thorax -5.319041413082345 -0.9153917877232368 3.3294199155024384
lowerneck -16.63190190765204 -2.7569550830976435 -2.3652258100354433
upperneck 21.611894258566963 -3.1376210826076094 -0.3263847103950539
head 9.620206714619034 -1.6947556187720927 -0.13050509776775446
lclavicle -2.7971981742675558e-15 -4.160075957882666e-16
lhumerus -28.41370245678102 -0.6277544840783809 84.02259490084873
lradius 30.93578796955356
lwrist 8.292667558712138
lhand -30.483582959386915 19.695711128512126
lfingers 7.1250199999999975
lthumb -3.7844229592970167 49.641911194102015
rclavicle -2.7971981742675558e-15 -4.160075957882666e-16
rhumerus -34.69788215814086 -23.56219077621916 -73.00702047519442
rradius 21.80240913320457
rwrist 8.82750354346984
rhand -17.368201554516027 22.51929948373371
rfingers 7.1250199999999975
rthumb 8.880078444158663 -7.273870535690279
5
root 0.6461424115281638 18.08939028898504 -23.771384621979074 -3.4050409298190214 0.42873786512046896 -4.396194318522642
lfemur -3.1060234275225875 0.10609519747565743 -16.463404833048656
ltibia 62.04728325425168
lfoot 12.802778337421596 -14.52918103496637
ltoes 4.083099170354599
rfemur -17.150696927707212 3.9308719003470536 29.37649452794019
rtibia 27.547205037599703
rfoot -7.204351140792543 -4.716442986980741
rtoes 9.183271340437708
lowerback 10.020298074012183 -1.0638895414444542 2.3407074913677124
upperback 0.3012359914894199 -0.9577289460367799 3.4441316728842266
thorax -5.292312041878349 -0.4880403611931513 2.422543661922213
lowerneck -16.884498415260282 -2.9763192435116537 -2.2484272772688145
upperneck 21.572694700210622 -3.5829433559840314 0.14865214550424988
head 9.66440554453378 -1.834759283621395 -0.047449479298598024
lclavicle -2.797198111768902e-15 -4.1600763882043725e-16
lhumerus -28.289702652382474 -2.137294634703782 84.91458983328714
lradius 29.26949153934479
lwrist 5.663956183011825
lhand -28.6959919846048 21.91500474191662
lfingers 7.1250199999999975
lthumb -2.058081984175526 51.884904741812775
rclavicle -2.797198111768902e-15 -4.1600763882043725e-16
rhumerus -32.83338725210527 -23.66909059803077 -73.73271803212997
rradius 21.151611122827436
rwrist 9.472841944135727
rhand -16.07671246797373 26.690881755281826
rfingers 7.1250199999999975
rthumb 10.126187532618431 -3.0454285579368587
